<mxfile host="app.diagrams.net" agent="Mozilla/5.0 (Windows NT 10.0; Win64; x64) AppleWebKit/537.36 (KHTML, like Gecko) Chrome/139.0.0.0 Safari/537.36" version="28.1.2">
  <diagram name="Page-1" id="tfuoeAEBD4mmMuSxaIrN">
    <mxGraphModel dx="872" dy="513" grid="1" gridSize="10" guides="1" tooltips="1" connect="1" arrows="1" fold="1" page="1" pageScale="1" pageWidth="827" pageHeight="1169" math="0" shadow="0">
      <root>
        <mxCell id="0" />
        <mxCell id="1" parent="0" />
        <mxCell id="U6E3atBSF6sxTZSdk5wr-13" value="" style="edgeStyle=orthogonalEdgeStyle;rounded=0;orthogonalLoop=1;jettySize=auto;html=1;" edge="1" parent="1" source="U6E3atBSF6sxTZSdk5wr-1" target="U6E3atBSF6sxTZSdk5wr-2">
          <mxGeometry relative="1" as="geometry" />
        </mxCell>
        <mxCell id="U6E3atBSF6sxTZSdk5wr-1" value="&lt;font style=&quot;font-size: 20px;&quot;&gt;Start&lt;/font&gt;" style="ellipse;whiteSpace=wrap;html=1;" vertex="1" parent="1">
          <mxGeometry x="354" y="41" width="120" height="80" as="geometry" />
        </mxCell>
        <mxCell id="U6E3atBSF6sxTZSdk5wr-14" value="" style="edgeStyle=orthogonalEdgeStyle;rounded=0;orthogonalLoop=1;jettySize=auto;html=1;" edge="1" parent="1" source="U6E3atBSF6sxTZSdk5wr-2" target="U6E3atBSF6sxTZSdk5wr-3">
          <mxGeometry relative="1" as="geometry" />
        </mxCell>
        <mxCell id="U6E3atBSF6sxTZSdk5wr-2" value="Import Libraries&lt;div&gt;(NumPy, Pandas, Sklearn,etc.)&lt;/div&gt;" style="rounded=1;whiteSpace=wrap;html=1;" vertex="1" parent="1">
          <mxGeometry x="307" y="171" width="214" height="60" as="geometry" />
        </mxCell>
        <mxCell id="U6E3atBSF6sxTZSdk5wr-15" value="" style="edgeStyle=orthogonalEdgeStyle;rounded=0;orthogonalLoop=1;jettySize=auto;html=1;" edge="1" parent="1" source="U6E3atBSF6sxTZSdk5wr-3" target="U6E3atBSF6sxTZSdk5wr-4">
          <mxGeometry relative="1" as="geometry" />
        </mxCell>
        <mxCell id="U6E3atBSF6sxTZSdk5wr-3" value="Load Dataset&lt;div&gt;(Pandas DataFrame)&lt;/div&gt;" style="shape=parallelogram;perimeter=parallelogramPerimeter;whiteSpace=wrap;html=1;fixedSize=1;" vertex="1" parent="1">
          <mxGeometry x="264" y="281" width="300" height="60" as="geometry" />
        </mxCell>
        <mxCell id="U6E3atBSF6sxTZSdk5wr-16" value="" style="edgeStyle=orthogonalEdgeStyle;rounded=0;orthogonalLoop=1;jettySize=auto;html=1;" edge="1" parent="1" source="U6E3atBSF6sxTZSdk5wr-4" target="U6E3atBSF6sxTZSdk5wr-5">
          <mxGeometry relative="1" as="geometry" />
        </mxCell>
        <mxCell id="U6E3atBSF6sxTZSdk5wr-4" value="Preprocess Data&lt;div&gt;- Handle Missing Values&lt;/div&gt;&lt;div&gt;- Encode Labels&lt;/div&gt;&lt;div&gt;- Normalize Features&lt;/div&gt;" style="rounded=1;whiteSpace=wrap;html=1;" vertex="1" parent="1">
          <mxGeometry x="290" y="391" width="248" height="80" as="geometry" />
        </mxCell>
        <mxCell id="U6E3atBSF6sxTZSdk5wr-17" value="" style="edgeStyle=orthogonalEdgeStyle;rounded=0;orthogonalLoop=1;jettySize=auto;html=1;" edge="1" parent="1" source="U6E3atBSF6sxTZSdk5wr-5" target="U6E3atBSF6sxTZSdk5wr-6">
          <mxGeometry relative="1" as="geometry" />
        </mxCell>
        <mxCell id="U6E3atBSF6sxTZSdk5wr-5" value="Split Data&lt;div&gt;(Train / Test Sets)&lt;/div&gt;" style="rounded=1;whiteSpace=wrap;html=1;" vertex="1" parent="1">
          <mxGeometry x="354" y="521" width="120" height="60" as="geometry" />
        </mxCell>
        <mxCell id="U6E3atBSF6sxTZSdk5wr-18" value="" style="edgeStyle=orthogonalEdgeStyle;rounded=0;orthogonalLoop=1;jettySize=auto;html=1;" edge="1" parent="1" source="U6E3atBSF6sxTZSdk5wr-6" target="U6E3atBSF6sxTZSdk5wr-7">
          <mxGeometry relative="1" as="geometry" />
        </mxCell>
        <mxCell id="U6E3atBSF6sxTZSdk5wr-6" value="Train Model&lt;div&gt;(Multi-Class Logistic Regression)&lt;/div&gt;&lt;div&gt;- Softmax function&lt;/div&gt;" style="rounded=1;whiteSpace=wrap;html=1;" vertex="1" parent="1">
          <mxGeometry x="300" y="631" width="228" height="60" as="geometry" />
        </mxCell>
        <mxCell id="U6E3atBSF6sxTZSdk5wr-19" value="" style="edgeStyle=orthogonalEdgeStyle;rounded=0;orthogonalLoop=1;jettySize=auto;html=1;" edge="1" parent="1" source="U6E3atBSF6sxTZSdk5wr-7" target="U6E3atBSF6sxTZSdk5wr-8">
          <mxGeometry relative="1" as="geometry" />
        </mxCell>
        <mxCell id="U6E3atBSF6sxTZSdk5wr-7" value="Evaluate Model&lt;div&gt;- Accuracy&lt;/div&gt;&lt;div&gt;- Precision&lt;/div&gt;&lt;div&gt;- Recall&lt;/div&gt;&lt;div&gt;- Confusion Matrix&lt;/div&gt;" style="rounded=1;whiteSpace=wrap;html=1;" vertex="1" parent="1">
          <mxGeometry x="300" y="741" width="228" height="80" as="geometry" />
        </mxCell>
        <mxCell id="U6E3atBSF6sxTZSdk5wr-20" style="edgeStyle=orthogonalEdgeStyle;rounded=0;orthogonalLoop=1;jettySize=auto;html=1;exitX=0;exitY=0.5;exitDx=0;exitDy=0;entryX=0.5;entryY=0;entryDx=0;entryDy=0;" edge="1" parent="1" source="U6E3atBSF6sxTZSdk5wr-8" target="U6E3atBSF6sxTZSdk5wr-9">
          <mxGeometry relative="1" as="geometry" />
        </mxCell>
        <mxCell id="U6E3atBSF6sxTZSdk5wr-26" value="Yes" style="edgeLabel;html=1;align=center;verticalAlign=middle;resizable=0;points=[];fontSize=15;" vertex="1" connectable="0" parent="U6E3atBSF6sxTZSdk5wr-20">
          <mxGeometry x="-0.2283" y="-1" relative="1" as="geometry">
            <mxPoint as="offset" />
          </mxGeometry>
        </mxCell>
        <mxCell id="U6E3atBSF6sxTZSdk5wr-25" style="edgeStyle=orthogonalEdgeStyle;rounded=0;orthogonalLoop=1;jettySize=auto;html=1;exitX=1;exitY=0.5;exitDx=0;exitDy=0;entryX=0.5;entryY=0;entryDx=0;entryDy=0;" edge="1" parent="1" source="U6E3atBSF6sxTZSdk5wr-8" target="U6E3atBSF6sxTZSdk5wr-12">
          <mxGeometry relative="1" as="geometry" />
        </mxCell>
        <mxCell id="U6E3atBSF6sxTZSdk5wr-27" value="No" style="edgeLabel;html=1;align=center;verticalAlign=middle;resizable=0;points=[];fontSize=15;" vertex="1" connectable="0" parent="U6E3atBSF6sxTZSdk5wr-25">
          <mxGeometry x="-0.3529" y="1" relative="1" as="geometry">
            <mxPoint as="offset" />
          </mxGeometry>
        </mxCell>
        <mxCell id="U6E3atBSF6sxTZSdk5wr-8" value="New Wine Sample Available?" style="rhombus;whiteSpace=wrap;html=1;" vertex="1" parent="1">
          <mxGeometry x="284" y="871" width="260" height="80" as="geometry" />
        </mxCell>
        <mxCell id="U6E3atBSF6sxTZSdk5wr-22" style="edgeStyle=orthogonalEdgeStyle;rounded=0;orthogonalLoop=1;jettySize=auto;html=1;exitX=0.5;exitY=1;exitDx=0;exitDy=0;entryX=0.5;entryY=0;entryDx=0;entryDy=0;" edge="1" parent="1" source="U6E3atBSF6sxTZSdk5wr-9" target="U6E3atBSF6sxTZSdk5wr-10">
          <mxGeometry relative="1" as="geometry" />
        </mxCell>
        <mxCell id="U6E3atBSF6sxTZSdk5wr-9" value="Input Features" style="shape=parallelogram;perimeter=parallelogramPerimeter;whiteSpace=wrap;html=1;fixedSize=1;" vertex="1" parent="1">
          <mxGeometry x="50" y="951" width="180" height="40" as="geometry" />
        </mxCell>
        <mxCell id="U6E3atBSF6sxTZSdk5wr-23" value="" style="edgeStyle=orthogonalEdgeStyle;rounded=0;orthogonalLoop=1;jettySize=auto;html=1;" edge="1" parent="1" source="U6E3atBSF6sxTZSdk5wr-10" target="U6E3atBSF6sxTZSdk5wr-11">
          <mxGeometry relative="1" as="geometry" />
        </mxCell>
        <mxCell id="U6E3atBSF6sxTZSdk5wr-10" value="Predict Class" style="rounded=1;whiteSpace=wrap;html=1;" vertex="1" parent="1">
          <mxGeometry x="70" y="1020" width="140" height="40" as="geometry" />
        </mxCell>
        <mxCell id="U6E3atBSF6sxTZSdk5wr-24" style="edgeStyle=orthogonalEdgeStyle;rounded=0;orthogonalLoop=1;jettySize=auto;html=1;exitX=1;exitY=0.5;exitDx=0;exitDy=0;entryX=0.5;entryY=1;entryDx=0;entryDy=0;" edge="1" parent="1" source="U6E3atBSF6sxTZSdk5wr-11" target="U6E3atBSF6sxTZSdk5wr-8">
          <mxGeometry relative="1" as="geometry" />
        </mxCell>
        <mxCell id="U6E3atBSF6sxTZSdk5wr-11" value="Output Predicted Class" style="shape=parallelogram;perimeter=parallelogramPerimeter;whiteSpace=wrap;html=1;fixedSize=1;" vertex="1" parent="1">
          <mxGeometry x="40" y="1090" width="200" height="40" as="geometry" />
        </mxCell>
        <mxCell id="U6E3atBSF6sxTZSdk5wr-12" value="&lt;font style=&quot;font-size: 20px;&quot;&gt;End&lt;/font&gt;" style="ellipse;whiteSpace=wrap;html=1;" vertex="1" parent="1">
          <mxGeometry x="600" y="931" width="120" height="80" as="geometry" />
        </mxCell>
      </root>
    </mxGraphModel>
  </diagram>
</mxfile>
